<svg xmlns="http://www.w3.org/2000/svg" viewBox="0 0 512 512" width="100%" height="100%">
  <!-- Purple Elements (#7523FE) -->
  <g fill="#7523FE">
    <!-- Left Arrow Caret -->
    <polygon points="87.77,181.96 113.21,203.62 113.21,219.23 87.77,197.57 62.34,219.23 62.34,203.62" />
    <!-- Right Arrow Caret -->
    <polygon points="426.75,181.96 452.18,203.62 452.18,219.23 426.75,198.08 401.31,219.23 401.31,203.62" />
    <!-- Left Bracket < -->
    <polygon points="87.77,209.66 104.14,222.76 52.26,259.02 107.67,298.31 107.67,321.98 16.0,259.02" />
    <!-- Right Bracket > -->
    <polygon points="426.24,209.66 496.0,259.02 402.32,321.98 402.32,298.31 459.74,259.02 407.86,222.76" />
    <!-- Purple Slash -->
    <polygon points="338.85,171.89 387.21,171.89 258.27,289.75 258.27,312.92 225.53,340.11 225.53,275.64" />
  </g>
  <!-- White Elements (#FFFFFF) -->
  <g fill="#FFFFFF">
    <!-- Letter H -->
    <polygon points="131.34,171.89 164.08,171.89 164.08,239.38 225.53,239.38 225.53,171.89 258.27,171.89 258.27,233.33 215.96,272.12 164.08,272.62 164.08,340.11 131.34,340.11" />
    <!-- Letter K Lower Leg -->
    <polygon points="305.11,259.02 391.24,340.11 339.86,340.11 325.76,327.02 279.42,282.69" />
  </g>
</svg>
